<svg width="47" height="47" viewBox="0 0 47 47" fill="none" xmlns="http://www.w3.org/2000/svg">
<path fill-rule="evenodd" clip-rule="evenodd" d="M2 5C2 3.34315 3.34315 2 5 2H32.7231C34.38 2 35.7231 3.34314 35.7231 5V14.4702L30.0249 20.7645C30.025 20.7531 30.0251 20.7416 30.0251 20.7302C30.0251 19.3681 28.9209 18.2639 27.5588 18.2639H10.1644C8.80235 18.2639 7.69816 19.3681 7.69816 20.7302C7.69816 22.0923 8.80235 23.1964 10.1644 23.1964H27.5588C27.653 23.1964 27.7459 23.1912 27.8374 23.1809L22.6561 28.9042C22.2063 28.4269 21.5683 28.1289 20.8607 28.1289H10.1644C8.80235 28.1289 7.69816 29.2331 7.69816 30.5952C7.69816 31.9573 8.80235 33.0615 10.1644 33.0615H20.1331L19.071 38.006C18.9207 38.706 19.1276 39.3931 19.5598 39.8705C19.5906 39.9045 19.6226 39.9376 19.656 39.9696C20.0956 40.4368 20.7361 40.6747 21.4097 40.4981L27.0131 39.0296C27.3368 38.9448 27.6344 38.7675 27.8761 38.5161C27.9149 38.4796 27.9523 38.4415 27.9881 38.402L35.7231 29.8578V41.3929C35.7231 43.0497 34.38 44.3929 32.7231 44.3929H4.99999C3.34314 44.3929 2 43.0497 2 41.3929V5ZM37.7231 27.6403V41.3929C37.7231 44.1543 35.4845 46.3929 32.7231 46.3929H4.99999C2.23857 46.3929 0 44.1543 0 41.3929V5C0 2.23858 2.23858 0 5 0H32.7231C35.4845 0 37.7231 2.23858 37.7231 5V12.2674L39.2287 10.6044C39.97 9.78549 41.1719 9.78549 41.9132 10.6044L46.1871 15.3254C46.9285 16.1443 46.9285 17.4719 46.1871 18.2908L37.7231 27.6403ZM36.0477 26.5257L44.8449 16.8081L40.5709 12.087L37.5307 15.4453C37.5102 15.4735 37.488 15.5006 37.4644 15.5267L23.243 31.236C23.0909 31.8026 22.7421 32.2887 22.2743 32.6165L21.0264 38.426C21.0251 38.4324 21.0241 38.4385 21.0234 38.4443L26.5672 36.9914L35.9818 26.592C36.0028 26.5687 36.0248 26.5466 36.0477 26.5257ZM10.1644 8.39879C8.80235 8.39879 7.69816 9.50298 7.69816 10.8651C7.69816 12.2271 8.80235 13.3313 10.1644 13.3313H27.5588C28.9209 13.3313 30.0251 12.2271 30.0251 10.8651C30.0251 9.50298 28.9209 8.39879 27.5588 8.39879H10.1644Z" fill="black"/>
</svg>
